<?xml version="1.0" encoding="UTF-8"?>
<svg version="1.1" xmlns="http://www.w3.org/2000/svg" width="512" height="512">
<path d="M0 0 C1.46809889 0.43705677 2.93661228 0.87272323 4.40550232 1.30711365 C7.54634575 2.23892593 10.68425158 3.17984699 13.82012939 4.12823486 C18.80588469 5.63594309 23.79759832 7.12318122 28.79052734 8.60693359 C33.985223 10.1516006 39.17953108 11.69750282 44.37176514 13.25042725 C59.99427946 17.92226761 75.64342151 22.49987998 91.30134296 27.05143356 C96.60962942 28.59449665 101.91664266 30.14187032 107.22290039 31.69189453 C124.76632108 36.8156846 124.76632108 36.8156846 142.32937622 41.8717041 C146.23943064 42.98924403 150.14758449 44.11334071 154.05560303 45.23797607 C156.57288478 45.95881617 159.09313572 46.66843136 161.61376953 47.37744141 C163.08513411 47.80050495 164.55633811 48.22412759 166.02734375 48.6484375 C167.25533691 48.99656494 168.48333008 49.34469238 169.74853516 49.70336914 C174.91387286 51.61545297 179.13731617 54.17223296 182.05078125 58.92578125 C183.077905 62.00715251 183.1814336 64.12174305 183.19122314 67.3506012 C183.19693329 68.47830429 183.20264343 69.60600739 183.20852661 70.7678833 C183.20964447 72.00665222 183.21076233 73.24542114 183.21191406 74.52172852 C183.21687897 75.82639572 183.22184387 77.13106293 183.22695923 78.4752655 C183.2400932 82.06349552 183.24653357 85.65170679 183.25096989 89.23995709 C183.25390733 91.49301669 183.25801404 93.74607128 183.26247406 95.99912834 C183.27616985 103.07916253 183.28581856 110.15918513 183.28967595 117.23923165 C183.29412084 125.35015842 183.3114911 133.46091365 183.34067655 141.57178837 C183.36254115 147.87284339 183.37239368 154.17385115 183.37371707 160.47494358 C183.37475037 164.2205156 183.38033021 167.96592695 183.39853668 171.71145821 C183.7232392 242.67305353 162.54116196 311.3874859 116.05078125 365.92578125 C115.13989489 367.02152889 114.22978045 368.11791855 113.3203125 369.21484375 C103.72504738 380.70215562 93.49439152 391.53832828 81.7109375 400.8125 C79.95364703 402.20852664 78.23051537 403.64879252 76.546875 405.1328125 C52.98287912 425.81562111 24.07218095 440.86307262 -4.88671875 452.48828125 C-6.12772339 453.00865967 -6.12772339 453.00865967 -7.39379883 453.53955078 C-18.68405233 457.91568758 -28.02341702 456.26491346 -38.88671875 451.55078125 C-40.50416992 450.87402344 -40.50416992 450.87402344 -42.15429688 450.18359375 C-45.43386225 448.79541793 -48.69406349 447.37018455 -51.94921875 445.92578125 C-52.91230957 445.4987793 -53.87540039 445.07177734 -54.86767578 444.63183594 C-81.90072537 432.49338261 -106.76661093 416.37014413 -128.5 396.19140625 C-130.63309742 394.21820608 -132.80280862 392.31283422 -135.01171875 390.42578125 C-142.60451271 383.79370816 -149.41208292 376.62362209 -155.6875 368.73828125 C-157.16917746 366.89578078 -158.68674996 365.0814525 -160.2421875 363.30078125 C-206.70112292 309.94500549 -225.53999867 238.97300104 -225.35219526 169.62091351 C-225.34443562 165.84152856 -225.35168539 162.06216202 -225.35635376 158.28277588 C-225.36175172 151.96647106 -225.35476509 145.65027288 -225.34033203 139.33398438 C-225.32387446 132.04783042 -225.32941183 124.76192669 -225.34581125 117.47577834 C-225.35942912 111.17030761 -225.36134857 104.86491199 -225.35349524 98.55943131 C-225.34883847 94.81374637 -225.34814139 91.06817934 -225.35810471 87.32250214 C-225.36839141 83.16895125 -225.35413274 79.01583456 -225.33740234 74.86230469 C-225.34347504 73.63432159 -225.34954773 72.4063385 -225.35580444 71.1411438 C-225.30314059 64.09503386 -224.93396213 59.15466416 -219.96435547 53.77856445 C-215.48235641 51.02440325 -210.73773868 49.74121419 -205.70703125 48.28125 C-204.56557648 47.94030807 -203.4241217 47.59936615 -202.24807739 47.24809265 C-199.13015273 46.32021704 -196.00934855 45.4030439 -192.88648987 44.49193573 C-190.31730994 43.74111014 -187.75018332 42.98334459 -185.18296146 42.22585583 C-176.8251244 39.76091196 -168.45842652 37.32672811 -160.09039688 34.89665604 C-156.20917146 33.76907435 -152.32860855 32.63921723 -148.44799805 31.50952148 C-143.58471768 30.09388426 -138.72138429 28.67843062 -133.85777283 27.26393127 C-122.22878924 23.88171639 -110.60206699 20.49180901 -98.9765625 17.09765625 C-97.33974417 16.61984027 -95.70292371 16.14203159 -94.06610107 15.66423035 C-87.77549395 13.82790989 -81.48489175 11.99157279 -75.19451904 10.15444946 C-74.08548973 9.83059847 -74.08548973 9.83059847 -72.95405579 9.50020504 C-71.49085162 9.07292896 -70.02766572 8.64559032 -68.5644989 8.21818638 C-65.09261699 7.2044189 -61.62011365 6.19289187 -58.14605713 5.18659973 C-52.29792966 3.49185941 -46.455753 1.78409307 -40.63427734 -0.00048828 C-39.68389084 -0.28658463 -38.73350433 -0.57268097 -37.75431824 -0.8674469 C-36.06918062 -1.37545988 -34.38724649 -1.89434019 -32.7101593 -2.42832947 C-21.15348631 -5.87274849 -11.22925387 -3.43708077 0 0 Z M-28.70825195 30.4284668 C-30.43527596 30.92859535 -30.43527596 30.92859535 -32.19718933 31.43882751 C-33.45211685 31.80963943 -34.70704437 32.18045135 -36 32.5625 C-37.34275077 32.95403967 -38.68567648 33.34497981 -40.02876282 33.73536682 C-43.67879606 34.79809479 -47.32637287 35.86903906 -50.97357941 36.94142151 C-54.81805483 38.07026372 -58.66474156 39.1915184 -62.51123047 40.31347656 C-68.99737276 42.20632317 -75.48222205 44.10354208 -81.96630859 46.00341797 C-91.02930338 48.6585416 -100.09572879 51.3017889 -109.16335869 53.94103432 C-136.56155154 61.91538073 -136.56155154 61.91538073 -163.94921875 69.92578125 C-164.61281906 70.12033905 -165.27641937 70.31489685 -165.96012878 70.51535034 C-170.44458887 71.8306726 -174.92768571 73.15056628 -179.41015625 74.47265625 C-180.55304108 74.80839661 -181.6959259 75.14413696 -182.8734436 75.49005127 C-183.91213593 75.79723083 -184.95082825 76.1044104 -186.02099609 76.42089844 C-186.9292514 76.6887616 -187.83750671 76.95662476 -188.77328491 77.23260498 C-190.9638834 77.86868687 -190.9638834 77.86868687 -192.94921875 78.92578125 C-192.99627164 93.42683334 -193.03136859 107.92787512 -193.05284309 122.42898846 C-193.06308616 129.16451981 -193.07726858 135.89999624 -193.10009766 142.63549805 C-193.12204244 149.1518739 -193.13383236 155.66820038 -193.13897324 162.18461037 C-193.14263057 164.65411975 -193.14977062 167.12362685 -193.16067886 169.59311485 C-193.23926205 188.14378792 -192.70275898 206.59108634 -189.19921875 224.86328125 C-188.94543457 226.2100293 -188.94543457 226.2100293 -188.68652344 227.58398438 C-179.5347228 274.30205725 -158.35937018 317.27672908 -126.22265625 352.4296875 C-124.73102334 354.06740817 -123.25631094 355.72073548 -121.80078125 357.390625 C-100.65279563 381.5542981 -72.82848596 399.95381387 -44.07421875 413.80078125 C-42.66644165 414.47947266 -42.66644165 414.47947266 -41.23022461 415.171875 C-29.75654997 421.35654967 -29.75654997 421.35654967 -17.38671875 422.17578125 C-15.55510214 421.47375785 -13.74510364 420.7147386 -11.94921875 419.92578125 C-10.62909352 419.37715334 -9.30876383 418.82901725 -7.98828125 418.28125 C54.97937471 391.61573118 105.75745232 341.12054373 131.92431641 277.78076172 C144.11874441 246.87446759 151.28172047 214.27143514 151.16430664 180.98510742 C151.16452568 179.31439934 151.16452568 179.31439934 151.16474915 177.60993958 C151.16406024 173.97952226 151.15631642 170.3491582 151.1484375 166.71875 C151.14656968 164.1814222 151.1451475 161.64409404 151.14414978 159.10676575 C151.14073995 153.14314138 151.13288287 147.17953371 151.12280029 141.21591789 C151.1115601 134.41768308 151.10610893 127.61944731 151.10110486 120.8212055 C151.09069769 106.8560538 151.07314793 92.89091855 151.05078125 78.92578125 C140.74970296 75.40889201 130.39835451 72.19594393 119.94140625 69.1796875 C118.39531175 68.73116566 116.84930397 68.28234482 115.30337524 67.83325195 C111.16211272 66.63091628 107.01987337 65.43198174 102.87740326 64.23381424 C95.84675938 62.19953178 88.81771976 60.15970741 81.78870773 58.11979485 C79.9736811 57.59306149 78.15861996 57.06644704 76.34352493 56.53994942 C63.55242482 52.82897166 50.7718026 49.08389982 38.00022888 45.30627632 C35.36644056 44.52739662 32.73239865 43.74938079 30.0982666 42.97166443 C28.38158942 42.46476023 26.6649146 41.95784808 24.94824219 41.45092773 C24.11134354 41.20381011 23.27444489 40.95669249 22.41218567 40.70208645 C17.45408593 39.23737101 12.49778778 37.76673195 7.54261971 36.29213142 C4.47186214 35.37981554 1.39949637 34.47301398 -1.6733284 33.56768799 C-3.09484875 33.14756038 -4.51566552 32.72504362 -5.93571091 32.29995728 C-7.87212511 31.72054371 -9.81124658 31.15020093 -11.75048828 30.58032227 C-13.37496384 30.09813988 -13.37496384 30.09813988 -15.03225708 29.60621643 C-20.07154913 28.43070849 -23.77802259 28.98545281 -28.70825195 30.4284668 Z " fill="#000000" transform="translate(276.94921875,30.07421875)"/>
<path d="M0 0 C4.88377853 3.2937111 7.44538164 7.05358763 8.6875 12.8125 C8.81588138 19.93053412 5.99737073 24.25776638 1.23424911 29.5258131 C-0.14944681 30.91648479 -0.14944681 30.91648479 -1.56109619 32.33525085 C-2.07748051 32.85687186 -2.59386484 33.37849286 -3.12589717 33.91592056 C-4.84517242 35.65011238 -6.57143797 37.37716466 -8.29785156 39.10424805 C-9.53706866 40.35109202 -10.77588381 41.59833559 -12.014328 42.84594727 C-15.37111737 46.22463129 -18.73441035 49.59676632 -22.09961796 52.96706367 C-24.20329597 55.07439002 -26.30567104 57.18300752 -28.40761566 59.29206276 C-35.74471101 66.65363133 -43.08749067 74.00948038 -50.43505859 81.3605957 C-57.27813205 88.20730676 -64.10795376 95.06704569 -70.93188691 101.93282861 C-76.79747908 107.83312549 -82.67266692 113.72375248 -88.55528808 119.60707122 C-92.06585512 123.11843075 -95.57234072 126.63364331 -99.06903839 130.1588192 C-102.35766523 133.47363058 -105.65807616 136.77624004 -108.96782875 140.06995392 C-110.17827117 141.27858243 -111.38447633 142.49147227 -112.58601189 143.70895576 C-114.23129471 145.37473182 -115.8913978 147.02422995 -117.55596924 148.67070007 C-118.47994129 149.59668345 -119.40391335 150.52266684 -120.35588455 151.47671032 C-124.43614802 154.70020606 -128.70159957 156.71383225 -134 156.9140625 C-138.53538583 155.97940529 -141.71901298 154.81583937 -145.16287231 151.66299438 C-146.19628942 150.72095091 -146.19628942 150.72095091 -147.25058365 149.75987625 C-150.44621249 146.74176559 -153.59565682 143.68497356 -156.70654297 140.57958984 C-157.39700211 139.89409561 -158.08746124 139.20860138 -158.79884338 138.50233459 C-161.05353242 136.26210462 -163.30444075 134.01812907 -165.5546875 131.7734375 C-166.71490606 130.61746 -166.71490606 130.61746 -167.89856339 129.43812943 C-171.98195298 125.36965676 -176.06251546 121.29837437 -180.140625 117.22460938 C-184.35053985 113.02020609 -188.56967198 108.82517971 -192.7909832 104.63222313 C-196.04217574 101.39963347 -199.28666116 98.16037563 -202.52933121 94.91923904 C-204.08259133 93.36900507 -205.63835165 91.82127196 -207.19665146 90.27610397 C-209.36983877 88.11994694 -211.53339151 85.95455252 -213.69482422 83.78662109 C-214.33896774 83.15169235 -214.98311127 82.51676361 -215.64677429 81.8625946 C-220.01183418 77.45623336 -222.5907266 73.78412548 -222.625 67.375 C-222.4874804 62.49709906 -221.40954377 58.92673265 -217.8828125 55.37109375 C-213.48681392 51.53279649 -210.29981801 50.71418934 -204.54296875 50.484375 C-198.25798908 51.40896045 -194.18312576 55.51930528 -189.93994141 59.84448242 C-189.0315451 60.7522216 -189.0315451 60.7522216 -188.10479736 61.67829895 C-186.11735255 63.66782331 -184.14072854 65.66773982 -182.1640625 67.66796875 C-180.78323936 69.05439079 -179.40174964 70.44014922 -178.0196228 71.82527161 C-174.39295649 75.46336344 -170.77539202 79.1103757 -167.15966797 82.75933838 C-163.46477924 86.48497726 -159.76132762 90.20208271 -156.05859375 93.91992188 C-148.80150389 101.20913545 -141.55400377 108.50780443 -134.3125 115.8125 C-130.66402544 114.27576539 -128.35155692 112.09123949 -125.57521057 109.29553223 C-125.11387928 108.83379309 -124.652548 108.37205396 -124.17723697 107.89632273 C-122.63492942 106.3502892 -121.09989308 104.79723382 -119.56469727 103.24414062 C-118.45938639 102.1333535 -117.35361089 101.02302853 -116.24740601 99.91313171 C-113.86720247 97.52321965 -111.49009378 95.13028575 -109.1152668 92.73503113 C-105.359923 88.94787395 -101.59643037 85.16888677 -97.83152771 81.39123535 C-88.4815774 72.0071993 -79.1409481 62.61389989 -69.80517578 53.21575928 C-62.54941882 45.91155867 -55.2905114 38.61056049 -48.02098507 31.32006025 C-44.27775124 27.56530013 -40.54157172 23.80370065 -36.81051457 20.03684235 C-34.48783552 17.69497299 -32.15892439 15.35937951 -29.828228 13.02549171 C-28.74886487 11.94210923 -27.67208937 10.85614159 -26.59811592 9.767416 C-25.13119352 8.28107511 -23.65526898 6.80428369 -22.17677307 5.32946777 C-21.35327645 4.50060814 -20.52977983 3.6717485 -19.68132877 2.81777191 C-13.8800441 -2.09315848 -6.98428611 -2.50380068 0 0 Z " fill="#000000" transform="translate(368.3125,173.1875)"/>
</svg>
