<?xml version="1.0" encoding="UTF-8"?>
<svg version="1.1" xmlns="http://www.w3.org/2000/svg" width="225" height="225">
<path d="M0 0 C1.44711365 -0.00717545 1.44711365 -0.00717545 2.92346191 -0.01449585 C4.95045617 -0.01787786 6.97750626 -0.00879532 9.00439453 0.01220703 C12.086212 0.03899697 15.16438797 0.01240098 18.24609375 -0.01953125 C20.22657044 -0.01622685 22.20704489 -0.00981999 24.1875 0 C25.09713501 -0.01012115 26.00677002 -0.02024231 26.94396973 -0.03067017 C34.87539683 0.11281579 41.00272899 2.88153752 46.65625 8.4765625 C51.89612529 15.10000037 56.75114968 24.45323638 58.59375 32.6640625 C43.13814462 33.7376051 43.13814462 33.7376051 39.3515625 31.10546875 C38.03125 29.1640625 38.03125 29.1640625 36.59375 25.6640625 C36.26375 27.9740625 35.93375 30.2840625 35.59375 32.6640625 C30.64375 32.6640625 25.69375 32.6640625 20.59375 32.6640625 C20.59375 45.2040625 20.59375 57.7440625 20.59375 70.6640625 C7.64431716 70.6640625 -0.93550025 70.2523624 -12.40625 65.6640625 C-12.40625 52.4640625 -12.40625 39.2640625 -12.40625 25.6640625 C-20.76371587 38.20026131 -23.34598728 47.19539933 -25.40625 61.6640625 C-27.55480454 61.0484822 -29.70004625 60.42132819 -31.84375 59.7890625 C-33.63619141 59.26699219 -33.63619141 59.26699219 -35.46484375 58.734375 C-38.40625 57.6640625 -38.40625 57.6640625 -39.40625 55.6640625 C-37.76938615 38.67359867 -32.76788092 17.55468818 -19.40625 5.6640625 C-12.97249728 1.20359546 -7.75254483 -0.08625955 0 0 Z " fill="#010101" transform="translate(94.40625,100.3359375)"/>
<path d="M0 0 C2.13806861 1.90334032 3.36559938 3.57316272 5 6 C5.598125 6.886875 6.19625 7.77375 6.8125 8.6875 C9.22427085 15.41507132 8.85801988 22.68167028 5.96875 29.22265625 C3.22747136 34.25201827 -0.2129044 37.95895719 -5.43359375 40.296875 C-12.00535552 42.09735768 -19.40109855 42.42446029 -25.79296875 39.89453125 C-31.54412769 36.30126109 -35.83436541 31.49690376 -38 25 C-38.65575956 17.62738899 -39.2029974 10.78654025 -34.55078125 4.6796875 C-24.53450561 -6.16917528 -12.55267871 -8.37578037 0 0 Z " fill="#010101" transform="translate(122,50)"/>
<path d="M0 0 C14.52 0 29.04 0 44 0 C36.30785899 8.97416451 36.30785899 8.97416451 33.29443359 9.22705078 C32.17375488 9.21657715 31.05307617 9.20610352 29.8984375 9.1953125 C28.80708496 9.19031738 27.71573242 9.18532227 26.59130859 9.18017578 C25.19992676 9.16196777 23.80854492 9.14375977 22.375 9.125 C17.96125 9.08375 13.5475 9.0425 9 9 C9 18.9 9 28.8 9 39 C18.9 39 28.8 39 39 39 C39 37.02 39 35.04 39 33 C40.71484375 30.4453125 40.71484375 30.4453125 42.9375 28.125 C43.66839844 27.34382813 44.39929688 26.56265625 45.15234375 25.7578125 C47 24 47 24 48 24 C48 31.92 48 39.84 48 48 C32.16 48 16.32 48 0 48 C0 32.16 0 16.32 0 0 Z " fill="#101010" transform="translate(118,136)"/>
<path d="M0 0 C2.84383123 1.2748209 5.13754018 2.45137078 7 5 C6.5803916 10.83039055 0.65749312 14.86082606 -3.25512695 18.75610352 C-4.81084948 20.31085051 -6.34400867 21.88571953 -7.87695312 23.46289062 C-8.86067631 24.45181854 -9.8456609 25.43949363 -10.83203125 26.42578125 C-11.72639893 27.32723877 -12.6207666 28.22869629 -13.54223633 29.1574707 C-16 31 -16 31 -18.1862793 30.91088867 C-21.00030345 29.49762657 -22.87638306 27.26624793 -25 25 C-26.60012087 23.39179771 -28.20455736 21.78788178 -29.8125 20.1875 C-31.20833333 18.79166667 -32.60416667 17.39583333 -34 16 C-32.02 13.69 -30.04 11.38 -28 9 C-23.55004949 11.22497525 -21.39915309 13.44633995 -18 17 C-15.10261071 15.68904236 -13.03715911 14.28539071 -10.80078125 12.03125 C-10.23166016 11.46019531 -9.66253906 10.88914063 -9.07617188 10.30078125 C-8.49416016 9.70652344 -7.91214844 9.11226562 -7.3125 8.5 C-6.71888672 7.90574219 -6.12527344 7.31148437 -5.51367188 6.69921875 C-2.37072395 3.63576084 -2.37072395 3.63576084 0 0 Z " fill="#050505" transform="translate(164,140)"/>
</svg>
